<?xml version="1.0" encoding="utf-8"?>
<!-- Svg Vector Icons : http://www.onlinewebfonts.com/icon -->
<!DOCTYPE svg PUBLIC "-//W3C//DTD SVG 1.1//EN" "http://www.w3.org/Graphics/SVG/1.1/DTD/svg11.dtd">
<svg version="1.1" xmlns="http://www.w3.org/2000/svg" xmlns:xlink="http://www.w3.org/1999/xlink" x="0px" y="0px" viewBox="0 0 1000 1000" enable-background="new 0 0 1000 1000" xml:space="preserve">
<metadata> Svg Vector Icons : http://www.onlinewebfonts.com/icon </metadata>
<g><path d="M759.4,471.2c0,143.3-116.2,259.4-259.4,259.4c-143.3,0-259.4-116.1-259.4-259.4h-57.6c0,165.4,126.6,301.2,288.2,315.7V990h57.6V786.9c161.6-14.6,288.2-150.3,288.2-315.7H759.4z"/><path d="M500,672.9c111.4,0,201.8-90.3,201.8-201.8V211.8C701.8,100.3,611.4,10,500,10c-111.4,0-201.8,90.3-201.8,201.8v259.4C298.2,582.6,388.6,672.9,500,672.9z"/></g>
</svg>